<mxfile host="app.diagrams.net" agent="Mozilla/5.0 (Windows NT 10.0; Win64; x64) AppleWebKit/537.36 (KHTML, like Gecko) Chrome/140.0.0.0 Safari/537.36" version="28.2.5">
  <diagram name="第 1 页" id="NQkR1XAYOi_45P4Etqh8">
    <mxGraphModel dx="1213" dy="730" grid="0" gridSize="10" guides="1" tooltips="1" connect="1" arrows="1" fold="1" page="1" pageScale="1" pageWidth="827" pageHeight="1169" math="0" shadow="0">
      <root>
        <mxCell id="0" />
        <mxCell id="1" parent="0" />
        <mxCell id="3ve0M_jMjS1ZwmXRGtaL-1" value="" style="rounded=0;whiteSpace=wrap;html=1;strokeColor=#0F8B8D;fontColor=#143642;fillColor=#FAE5C7;sketch=1;curveFitting=1;jiggle=2;" vertex="1" parent="1">
          <mxGeometry x="82" y="176" width="299" height="220" as="geometry" />
        </mxCell>
        <mxCell id="3ve0M_jMjS1ZwmXRGtaL-3" value="" style="rounded=0;whiteSpace=wrap;html=1;strokeColor=#6c8ebf;fillColor=#dae8fc;sketch=1;curveFitting=1;jiggle=2;" vertex="1" parent="1">
          <mxGeometry x="101" y="216" width="250" height="68" as="geometry" />
        </mxCell>
        <mxCell id="3ve0M_jMjS1ZwmXRGtaL-4" value="&#xa;&lt;span style=&quot;color: rgb(51, 51, 51); font-family: &amp;quot;PingFang SC&amp;quot;, Avenir, Tahoma, Arial, &amp;quot;Lantinghei SC&amp;quot;, &amp;quot;Microsoft Yahei&amp;quot;, &amp;quot;Hiragino Sans GB&amp;quot;, &amp;quot;Microsoft Sans Serif&amp;quot;, &amp;quot;WenQuanYi Micro Hei&amp;quot;, Helvetica, sans-serif; font-size: 16px; font-style: normal; font-variant-ligatures: normal; font-variant-caps: normal; font-weight: 400; letter-spacing: normal; orphans: 2; text-align: start; text-indent: 0px; text-transform: none; widows: 2; word-spacing: 0px; -webkit-text-stroke-width: 0px; white-space: normal; background-color: rgb(255, 255, 255); text-decoration-thickness: initial; text-decoration-style: initial; text-decoration-color: initial; display: inline !important; float: none;&quot;&gt;Node 1&lt;/span&gt;&#xa;&#xa;" style="text;html=1;align=center;verticalAlign=middle;whiteSpace=wrap;rounded=0;fontColor=#143642;" vertex="1" parent="1">
          <mxGeometry x="250" y="184" width="60" height="30" as="geometry" />
        </mxCell>
        <mxCell id="3ve0M_jMjS1ZwmXRGtaL-7" value="&lt;span style=&quot;color: rgb(51, 51, 51); font-family: &amp;quot;PingFang SC&amp;quot;, Avenir, Tahoma, Arial, &amp;quot;Lantinghei SC&amp;quot;, &amp;quot;Microsoft Yahei&amp;quot;, &amp;quot;Hiragino Sans GB&amp;quot;, &amp;quot;Microsoft Sans Serif&amp;quot;, &amp;quot;WenQuanYi Micro Hei&amp;quot;, Helvetica, sans-serif; font-size: 16px; font-style: normal; font-variant-ligatures: normal; font-variant-caps: normal; font-weight: 400; letter-spacing: normal; orphans: 2; text-align: start; text-indent: 0px; text-transform: none; widows: 2; word-spacing: 0px; -webkit-text-stroke-width: 0px; white-space: normal; background-color: rgb(255, 255, 255); text-decoration-thickness: initial; text-decoration-style: initial; text-decoration-color: initial; float: none; display: inline !important;&quot;&gt;IP: 100.96.1.2&lt;/span&gt;&lt;div&gt;&lt;br&gt;&lt;/div&gt;" style="text;html=1;align=center;verticalAlign=middle;whiteSpace=wrap;rounded=0;fontColor=#143642;" vertex="1" parent="1">
          <mxGeometry x="106" y="254" width="144" height="30" as="geometry" />
        </mxCell>
        <mxCell id="3ve0M_jMjS1ZwmXRGtaL-13" value="&lt;span style=&quot;color: rgb(51, 51, 51); font-family: &amp;quot;PingFang SC&amp;quot;, Avenir, Tahoma, Arial, &amp;quot;Lantinghei SC&amp;quot;, &amp;quot;Microsoft Yahei&amp;quot;, &amp;quot;Hiragino Sans GB&amp;quot;, &amp;quot;Microsoft Sans Serif&amp;quot;, &amp;quot;WenQuanYi Micro Hei&amp;quot;, Helvetica, sans-serif; font-size: 16px; text-align: start; background-color: rgb(255, 255, 255); float: none; display: inline !important;&quot;&gt;docker0:&amp;nbsp;&lt;/span&gt;&lt;span style=&quot;background-color: rgb(255, 255, 255); color: rgb(51, 51, 51); font-family: &amp;quot;PingFang SC&amp;quot;, Avenir, Tahoma, Arial, &amp;quot;Lantinghei SC&amp;quot;, &amp;quot;Microsoft Yahei&amp;quot;, &amp;quot;Hiragino Sans GB&amp;quot;, &amp;quot;Microsoft Sans Serif&amp;quot;, &amp;quot;WenQuanYi Micro Hei&amp;quot;, Helvetica, sans-serif; font-size: 16px; text-align: start;&quot;&gt;100.96.1.1/24&lt;/span&gt;" style="rounded=0;whiteSpace=wrap;html=1;strokeColor=#666666;fontColor=#333333;fillColor=#f5f5f5;sketch=1;curveFitting=1;jiggle=2;" vertex="1" parent="1">
          <mxGeometry x="101" y="291.5" width="249" height="40.5" as="geometry" />
        </mxCell>
        <mxCell id="3ve0M_jMjS1ZwmXRGtaL-14" value="" style="rounded=0;whiteSpace=wrap;html=1;strokeColor=#0F8B8D;fontColor=#143642;fillColor=#FAE5C7;sketch=1;curveFitting=1;jiggle=2;" vertex="1" parent="1">
          <mxGeometry x="447" y="176" width="299" height="221" as="geometry" />
        </mxCell>
        <mxCell id="3ve0M_jMjS1ZwmXRGtaL-15" value="" style="rounded=0;whiteSpace=wrap;html=1;strokeColor=#6c8ebf;fillColor=#dae8fc;sketch=1;curveFitting=1;jiggle=2;" vertex="1" parent="1">
          <mxGeometry x="466" y="216" width="250" height="68" as="geometry" />
        </mxCell>
        <mxCell id="3ve0M_jMjS1ZwmXRGtaL-16" value="&lt;br&gt;&lt;span style=&quot;color: rgb(51, 51, 51); font-family: &amp;quot;PingFang SC&amp;quot;, Avenir, Tahoma, Arial, &amp;quot;Lantinghei SC&amp;quot;, &amp;quot;Microsoft Yahei&amp;quot;, &amp;quot;Hiragino Sans GB&amp;quot;, &amp;quot;Microsoft Sans Serif&amp;quot;, &amp;quot;WenQuanYi Micro Hei&amp;quot;, Helvetica, sans-serif; font-size: 16px; font-style: normal; font-variant-ligatures: normal; font-variant-caps: normal; font-weight: 400; letter-spacing: normal; orphans: 2; text-align: start; text-indent: 0px; text-transform: none; widows: 2; word-spacing: 0px; -webkit-text-stroke-width: 0px; white-space: normal; background-color: rgb(255, 255, 255); text-decoration-thickness: initial; text-decoration-style: initial; text-decoration-color: initial; float: none; display: inline !important;&quot;&gt;Node 2&lt;/span&gt;&lt;div&gt;&lt;br/&gt;&lt;/div&gt;" style="text;html=1;align=center;verticalAlign=middle;whiteSpace=wrap;rounded=0;fontColor=#143642;" vertex="1" parent="1">
          <mxGeometry x="615" y="184" width="60" height="30" as="geometry" />
        </mxCell>
        <mxCell id="3ve0M_jMjS1ZwmXRGtaL-17" value="&lt;span style=&quot;color: rgb(51, 51, 51); font-family: &amp;quot;PingFang SC&amp;quot;, Avenir, Tahoma, Arial, &amp;quot;Lantinghei SC&amp;quot;, &amp;quot;Microsoft Yahei&amp;quot;, &amp;quot;Hiragino Sans GB&amp;quot;, &amp;quot;Microsoft Sans Serif&amp;quot;, &amp;quot;WenQuanYi Micro Hei&amp;quot;, Helvetica, sans-serif; font-size: 16px; font-style: normal; font-variant-ligatures: normal; font-variant-caps: normal; font-weight: 400; letter-spacing: normal; orphans: 2; text-align: start; text-indent: 0px; text-transform: none; widows: 2; word-spacing: 0px; -webkit-text-stroke-width: 0px; white-space: normal; background-color: rgb(255, 255, 255); text-decoration-thickness: initial; text-decoration-style: initial; text-decoration-color: initial; float: none; display: inline !important;&quot;&gt;IP: 100.96.2.3&lt;/span&gt;&lt;div&gt;&lt;br&gt;&lt;/div&gt;" style="text;html=1;align=center;verticalAlign=middle;whiteSpace=wrap;rounded=0;fontColor=#143642;" vertex="1" parent="1">
          <mxGeometry x="471" y="254" width="144" height="30" as="geometry" />
        </mxCell>
        <mxCell id="3ve0M_jMjS1ZwmXRGtaL-18" value="&lt;span style=&quot;color: rgb(51, 51, 51); font-family: &amp;quot;PingFang SC&amp;quot;, Avenir, Tahoma, Arial, &amp;quot;Lantinghei SC&amp;quot;, &amp;quot;Microsoft Yahei&amp;quot;, &amp;quot;Hiragino Sans GB&amp;quot;, &amp;quot;Microsoft Sans Serif&amp;quot;, &amp;quot;WenQuanYi Micro Hei&amp;quot;, Helvetica, sans-serif; font-size: 16px; text-align: start; background-color: rgb(255, 255, 255); float: none; display: inline !important;&quot;&gt;docker0:&amp;nbsp;&lt;/span&gt;&lt;span style=&quot;background-color: rgb(255, 255, 255); color: rgb(51, 51, 51); font-family: &amp;quot;PingFang SC&amp;quot;, Avenir, Tahoma, Arial, &amp;quot;Lantinghei SC&amp;quot;, &amp;quot;Microsoft Yahei&amp;quot;, &amp;quot;Hiragino Sans GB&amp;quot;, &amp;quot;Microsoft Sans Serif&amp;quot;, &amp;quot;WenQuanYi Micro Hei&amp;quot;, Helvetica, sans-serif; font-size: 16px; text-align: start;&quot;&gt;100.96.2.1/24&lt;/span&gt;" style="rounded=0;whiteSpace=wrap;html=1;strokeColor=#666666;fontColor=#333333;fillColor=#f5f5f5;sketch=1;curveFitting=1;jiggle=2;" vertex="1" parent="1">
          <mxGeometry x="466" y="291.5" width="249" height="40.5" as="geometry" />
        </mxCell>
        <mxCell id="3ve0M_jMjS1ZwmXRGtaL-19" value="C1" style="text;html=1;align=center;verticalAlign=middle;whiteSpace=wrap;rounded=0;fontColor=#143642;" vertex="1" parent="1">
          <mxGeometry x="91" y="214" width="60" height="30" as="geometry" />
        </mxCell>
        <mxCell id="3ve0M_jMjS1ZwmXRGtaL-20" value="C2" style="text;html=1;align=center;verticalAlign=middle;whiteSpace=wrap;rounded=0;fontColor=#143642;" vertex="1" parent="1">
          <mxGeometry x="466" y="216" width="60" height="30" as="geometry" />
        </mxCell>
      </root>
    </mxGraphModel>
  </diagram>
</mxfile>
